<?xml version="1.0" encoding="UTF-8"?>
<!-- Created with Inkscape (http://www.inkscape.org/) -->
<svg width="16" height="16" version="1.1" viewBox="0 0 16 16" xmlns="http://www.w3.org/2000/svg">
 <g>
  <circle cx="8" cy="8" r="8" fill="#d9d9d9"/>
  <path transform="matrix(.45744 -.077838 .089662 .49072 -.74687 .97476)" d="m2.0899 18.882c-1.1237-1.7187-1.5461-4.0218-0.66633-5.6044 0.87976-1.5826 3.0617-2.4446 4.8616-2.5289 1.7999-0.08433 3.2178 0.60904 4.7324 1.1801 1.5146 0.57108 3.1258 1.0198 5.0797 1.0138 1.9539-6e-3 4.2504-0.46683 5.8679-1.0471 1.6174-0.58026 2.5557-1.2799 4.0975-1.2021 1.5418 0.07776 3.687 0.93292 4.6298 2.4774 0.94274 1.5445 0.68299 3.7782-0.40695 5.5157-1.0899 1.7375-3.0099 2.9786-5.5276 3.976-2.5177 0.99744-5.6328 1.7511-8.7148 1.745-3.082-0.006108-6.1307-0.77201-8.5676-1.7222-2.4369-0.95017-4.2618-2.0845-5.3855-3.8032z" fill="#bfbfbf" stroke="#404040" stroke-width="2.2087" style="paint-order:normal"/>
  <path d="m13.63 5.3166c-0.10644 0.048962-0.21428 0.094266-0.3266 0.12673-0.33268 0.096166-0.69678 0.10538-0.90766 0.17938-0.21089 0.073998-0.26933 0.21403-0.24044 0.32366 0.02889 0.10963 0.14546 0.18974 0.44682 0.19693 0.30135 0.00719 0.78814-0.06011 1.1641-0.16768 0.12322-0.035253 0.2313-0.076219 0.33461-0.11894-0.046765-0.11553-0.10338-0.21984-0.17031-0.30026-0.072742-0.087398-0.17831-0.16752-0.30055-0.23982zm-2.8332 0.44064c-0.01835 0.011138-0.03312 0.021815-0.05209 0.033146-0.17246 0.10296-0.36055 0.20158-0.55702 0.29831 0.22348 0.43377 0.43818 0.82433 0.61112 1.0529 0.23845 0.31511 0.40045 0.32432 0.51494 0.27102 0.1145-0.0533 0.17976-0.16896 0.03006-0.55568-0.1031-0.26631-0.30982-0.66476-0.54701-1.0997zm-7.073 0.72141c-0.15222 9.69e-5 -0.30303 0.014527-0.45684 0.048744-0.026234 0.00584-0.05358 0.016127-0.080147 0.023397-0.025312 0.43374-0.063833 0.85984-0.14426 1.2537-0.11545 0.56532-0.31779 1.0667-0.37268 1.357-0.054891 0.29032 0.037196 0.36879 0.14627 0.40945 0.10907 0.040658 0.2353 0.043325 0.41476-0.23397 0.17946-0.2773 0.41247-0.83448 0.52496-1.4565 0.079717-0.44077 0.096977-0.91347 0.09818-1.396-0.04332-0.00219-0.087216-0.00588-0.13024-0.00585zm1.4687 0.24762c-0.098024 0.35739-0.17691 0.67906-0.19235 0.88324-0.023072 0.30511 0.092472 0.35433 0.20437 0.3724 0.1119 0.018071 0.21934 0.0063763 0.33862-0.27492 0.080189-0.18911 0.16569-0.51296 0.25246-0.86374-0.19027-0.03019-0.37522-0.066057-0.55502-0.10529-0.017148-0.00374-0.031144-0.00796-0.048088-0.011698zm3.2019 0.017548c-0.15843 0.038701-0.31731 0.075986-0.47487 0.10334-0.033921 0.00589-0.066531 0.0084-0.10018 0.013648 0.055379 0.68863 0.11492 1.3238 0.19836 1.6807 0.10378 0.44385 0.24548 0.4605 0.36266 0.45039 0.11719-0.01011 0.20994-0.046614 0.2204-0.27881 0.010459-0.2322-0.062705-0.66092-0.12022-1.125-0.033648-0.27151-0.060198-0.55593-0.086158-0.84424zm4.0715 0.24372c-0.09327-0.00237-0.14994 0.043023-0.19035 0.097487-0.06465 0.087144-0.08714 0.19894 0.08415 0.40165 0.1713 0.20271 0.53606 0.49485 0.84555 0.70581 0.11578 0.078923 0.22144 0.14452 0.32459 0.20472 0.145-0.16662 0.26875-0.33543 0.36868-0.50694-0.10682-0.064133-0.21718-0.1345-0.33862-0.22032-0.29856-0.21099-0.65314-0.50444-0.88362-0.62002-0.08643-0.043342-0.15442-0.060973-0.21038-0.062392zm-5.6123 0.77405c-0.08636 0.00177-0.16716 0.051538-0.24846 0.33146-0.092911 0.31991-0.18631 0.93991-0.23844 1.5676-0.036668 0.44157-0.050353 0.88714-0.06011 1.3336 0.2064 0.01908 0.41618 0.03024 0.62715 0.03705 0.00718-0.43291 0.017582-0.86442 0.050092-1.2927 0.048155-0.63439 0.13811-1.2621 0.12824-1.5949-0.0098749-0.33279-0.1196-0.37066-0.2204-0.3802-0.0126-0.00119-0.025733-0.0022-0.03807-0.00195zm3.1237 0.15403c-0.02698-1.561e-4 -0.05211 0.00343-0.07814 0.00975-0.10412 0.025257-0.20048 0.074904-0.18634 0.35096 0.014143 0.27605 0.13799 0.77868 0.24044 1.2946 0.06259 0.31519 0.11701 0.63716 0.16831 0.95928 0.20389-0.07394 0.40472-0.154 0.6011-0.23982-0.04783-0.30745-0.099488-0.61372-0.15829-0.91444-0.097996-0.50113-0.21657-0.98886-0.33261-1.2322-0.087028-0.18254-0.17352-0.22765-0.25447-0.22812zm1.9396 0.63562c-0.04153-2.047e-4 -0.07806 0.013364-0.1102 0.033146-0.08572 0.052751-0.13869 0.14151-0.05811 0.3958 0.04971 0.15685 0.15613 0.38345 0.27651 0.62782 0.0625-0.038432 0.12794-0.076057 0.18834-0.11504 0.09612-0.062025 0.18522-0.1228 0.2745-0.18523-0.11548-0.2429-0.22528-0.45818-0.32058-0.58493-0.098155-0.13053-0.18124-0.17124-0.25046-0.17158zm-7.105 0.08189c-0.021439-8.139e-4 -0.044386 0.00277-0.066121 0.00585-0.086942 0.012314-0.16962 0.023793-0.21039 0.23397-0.040763 0.21018-0.060907 0.77499-0.13625 1.1913-0.034929 0.193-0.084438 0.37076-0.13825 0.54008 0.17398 0.05249 0.35568 0.10264 0.55101 0.14818 0.057043-0.20871 0.10625-0.42334 0.13825-0.65122 0.065203-0.46432 0.061191-1.0055 0.018033-1.2459-0.032369-0.18026-0.091968-0.21983-0.15629-0.22227zm3.5565 1.4389c-0.096312 0.0086-0.19318 0.04234-0.23042 0.29441-0.021788 0.14746-0.020843 0.37694-0.014025 0.62977 0.17308-0.01714 0.3463-0.03958 0.51695-0.06824 0.020712-0.0035 0.041406-8e-3 0.062114-0.0117-0.020225-0.23638-0.044128-0.44449-0.078144-0.58103-0.063494-0.25485-0.16016-0.27182-0.25647-0.26322z" fill="#666" stroke="#666" stroke-width=".50599"/>
 </g>
</svg>
